<svg xmlns="http://www.w3.org/2000/svg" xmlns:xlink="http://www.w3.org/1999/xlink" width="500" zoomAndPan="magnify" viewBox="0 0 375 374.999991" height="500" preserveAspectRatio="xMidYMid meet" version="1.0"><defs><g/></defs><rect x="-37.5" width="450" fill="#ffffff" y="-37.499999" height="449.999989" fill-opacity="1"/><rect x="-37.5" width="450" fill="#ffffff" y="-37.499999" height="449.999989" fill-opacity="1"/><g fill="#01034d" fill-opacity="1"><g transform="translate(78.245939, 174.569521)"><g><path d="M 19.269531 -23.3125 C 16.277344 -24.730469 13.335938 -24.730469 13.074219 -24.730469 C 10.398438 -24.730469 7.824219 -26.304688 7.824219 -29.351562 C 7.824219 -32.710938 10.1875 -34.445312 13.074219 -34.445312 C 15.804688 -34.445312 18.113281 -33.027344 18.21875 -30.035156 C 18.21875 -29.875 18.484375 -29.613281 18.796875 -29.613281 L 25.359375 -29.613281 C 25.730469 -29.613281 25.992188 -29.875 25.9375 -30.035156 C 25.832031 -37.175781 20.269531 -42.007812 13.074219 -42.007812 C 6.351562 -42.007812 0 -37.226562 0 -29.351562 C 0 -24.46875 2.46875 -20.742188 6.824219 -18.746094 C 9.871094 -17.328125 12.707031 -17.328125 13.074219 -17.328125 C 15.4375 -17.222656 18.324219 -15.332031 18.324219 -12.234375 C 18.324219 -9.453125 15.855469 -7.5625 13.074219 -7.5625 C 13.074219 -7.5625 13.074219 -7.5625 13.023438 -7.5625 L 13.023438 0 C 13.074219 0 13.074219 0 13.074219 0 C 19.796875 0 26.097656 -4.359375 26.097656 -12.234375 C 26.097656 -17.171875 23.679688 -21.265625 19.269531 -23.3125 Z M 19.269531 -23.3125 "/></g></g></g><g fill="#01034d" fill-opacity="1"><g transform="translate(111.426908, 174.569521)"><g><path d="M 33.5 -0.789062 L 16.644531 -20.636719 L 33.34375 -41.21875 C 33.710938 -41.585938 33.449219 -42.007812 32.871094 -42.007812 L 24.3125 -42.007812 C 24.207031 -42.007812 23.890625 -41.902344 23.839844 -41.847656 L 8.035156 -22.421875 L 8.035156 -41.535156 C 8.035156 -41.742188 7.824219 -42.007812 7.507812 -42.007812 L 0.578125 -42.007812 C 0.261719 -42.007812 0 -41.742188 0 -41.535156 L 0 -2.574219 C 0 -2.574219 10.238281 -14.175781 11.289062 -15.28125 L 23.523438 -0.15625 C 23.574219 -0.105469 23.890625 0 23.996094 0 L 33.027344 0 C 33.550781 0 33.816406 -0.367188 33.5 -0.789062 Z M 33.5 -0.789062 "/></g></g></g><g fill="#01034d" fill-opacity="1"><g transform="translate(152.535371, 174.569521)"><g><path d="M 17.117188 -7.195312 L 12.917969 -7.195312 L 12.917969 -42.007812 L 4.882812 -42.007812 L 4.882812 -7.195312 L 0.578125 -7.195312 C 0.261719 -7.195312 0 -6.984375 0 -6.722656 L 0 -0.472656 C 0 -0.261719 0.261719 0 0.578125 0 L 17.117188 0 C 17.484375 0 17.695312 -0.261719 17.695312 -0.472656 L 17.695312 -6.722656 C 17.695312 -6.984375 17.484375 -7.195312 17.117188 -7.195312 Z M 17.117188 -7.195312 "/></g></g></g><g fill="#01034d" fill-opacity="1"><g transform="translate(176.896362, 174.569521)"><g><path d="M 34.761719 -42.007812 L 27.988281 -42.007812 C 27.617188 -42.007812 27.355469 -41.742188 27.355469 -41.535156 L 27.355469 -14.175781 L 7.980469 -41.847656 C 7.929688 -41.953125 7.613281 -42.007812 7.507812 -42.007812 L 0.523438 -42.007812 C 0.261719 -42.007812 0 -41.742188 0 -41.535156 L 0 -10.082031 L 8.035156 -10.082031 L 8.035156 -27.828125 L 27.355469 -0.15625 C 27.410156 -0.0507812 27.722656 0 27.828125 0 L 34.761719 0 C 35.128906 0 35.335938 -0.261719 35.335938 -0.472656 L 35.335938 -41.535156 C 35.335938 -41.742188 35.128906 -42.007812 34.761719 -42.007812 Z M 34.761719 -42.007812 "/></g></g></g><g fill="#01034d" fill-opacity="1"><g transform="translate(109.570156, 237.569516)"><g><path d="M 32.976562 -0.628906 L 17.011719 -41.691406 C 16.855469 -42.109375 16.121094 -42.109375 15.960938 -41.691406 L 0.0507812 -0.628906 C -0.105469 -0.316406 0.105469 0 0.578125 0 L 7.769531 0 C 7.980469 0 8.242188 -0.105469 8.296875 -0.316406 L 16.488281 -23.734375 L 24.785156 -0.316406 C 24.835938 -0.105469 25.097656 0 25.257812 0 L 32.503906 0 C 32.871094 0 33.132812 -0.316406 32.976562 -0.628906 Z M 32.976562 -0.628906 "/></g></g></g><g fill="#01034d" fill-opacity="1"><g transform="translate(149.996116, 237.569516)"><g><path d="M 22.683594 -7.824219 L 0 -7.824219 L 0 -0.472656 C 0 -0.261719 0.261719 0 0.578125 0 L 22.683594 0 C 23.050781 0 23.261719 -0.261719 23.261719 -0.472656 L 23.261719 -7.296875 C 23.261719 -7.5625 23.050781 -7.824219 22.683594 -7.824219 Z M 8.035156 -15.855469 L 8.035156 -41.535156 C 8.035156 -41.742188 7.824219 -42.007812 7.507812 -42.007812 L 0.578125 -42.007812 C 0.261719 -42.007812 0 -41.742188 0 -41.535156 L 0 -15.855469 Z M 8.035156 -15.855469 "/></g></g></g><g fill="#01034d" fill-opacity="1"><g transform="translate(180.237086, 237.569516)"><g><path d="M 19.953125 -7.824219 L 8.035156 -7.824219 L 8.035156 -17.273438 L 24.519531 -17.273438 C 24.835938 -17.273438 25.097656 -17.539062 25.097656 -17.746094 L 25.097656 -24.414062 C 25.097656 -24.679688 24.835938 -24.886719 24.519531 -24.886719 L 8.035156 -24.886719 L 8.035156 -34.390625 L 19.953125 -34.390625 L 19.953125 -42.007812 L 0.578125 -42.007812 C 0.261719 -42.007812 0 -41.742188 0 -41.535156 L 0 -0.472656 C 0 -0.261719 0.261719 0 0.578125 0 L 19.953125 0 Z M 19.953125 -7.824219 "/></g></g></g><g fill="#01034d" fill-opacity="1"><g transform="translate(212.368054, 237.569516)"><g><path d="M 28.667969 -0.683594 C 26.042969 -6.511719 23.207031 -12.285156 20.582031 -18.21875 C 24.785156 -19.742188 28.300781 -23.101562 28.300781 -29.507812 C 28.300781 -41.902344 16.488281 -42.007812 14.125 -42.007812 L 0.523438 -42.007812 C 0.261719 -42.007812 0 -41.742188 0 -41.535156 L 0 -34.390625 L 14.125 -34.390625 C 15.382812 -34.390625 20.320312 -34.128906 20.320312 -29.507812 C 20.320312 -24.886719 15.855469 -24.679688 14.125 -24.679688 L 0 -24.679688 L 0 -0.472656 C 0 -0.261719 0.261719 0 0.523438 0 L 7.402344 0 C 7.71875 0 7.980469 -0.261719 7.980469 -0.472656 L 7.980469 -16.960938 L 12.496094 -16.960938 L 20.164062 -0.316406 C 20.214844 -0.15625 20.53125 0 20.6875 0 L 28.195312 0 C 28.617188 0 28.828125 -0.316406 28.667969 -0.683594 Z M 28.667969 -0.683594 "/></g></g></g><g fill="#01034d" fill-opacity="1"><g transform="translate(248.331522, 237.569516)"><g><path d="M 8.664062 -26.777344 L 8.664062 -0.472656 C 8.664062 -0.261719 8.875 0 9.242188 0 L 16.015625 0 C 16.382812 0 16.644531 -0.261719 16.644531 -0.472656 L 16.644531 -26.777344 Z M 0.578125 -34.8125 L 24.679688 -34.8125 C 25.046875 -34.8125 25.257812 -35.023438 25.257812 -35.285156 L 25.257812 -41.535156 C 25.257812 -41.742188 25.046875 -42.007812 24.679688 -42.007812 L 0.578125 -42.007812 C 0.261719 -42.007812 0 -41.742188 0 -41.535156 L 0 -35.285156 C 0 -35.023438 0.261719 -34.8125 0.578125 -34.8125 Z M 0.578125 -34.8125 "/></g></g></g><g fill="#01034d" fill-opacity="1"><g transform="translate(280.619995, 237.569516)"><g><path d="M 19.269531 -23.3125 C 16.277344 -24.730469 13.335938 -24.730469 13.074219 -24.730469 C 10.398438 -24.730469 7.824219 -26.304688 7.824219 -29.351562 C 7.824219 -32.710938 10.1875 -34.445312 13.074219 -34.445312 C 15.804688 -34.445312 18.113281 -33.027344 18.21875 -30.035156 C 18.21875 -29.875 18.484375 -29.613281 18.796875 -29.613281 L 25.359375 -29.613281 C 25.730469 -29.613281 25.992188 -29.875 25.9375 -30.035156 C 25.832031 -37.175781 20.269531 -42.007812 13.074219 -42.007812 C 6.351562 -42.007812 0 -37.226562 0 -29.351562 C 0 -24.46875 2.46875 -20.742188 6.824219 -18.746094 C 9.871094 -17.328125 12.707031 -17.328125 13.074219 -17.328125 C 15.4375 -17.222656 18.324219 -15.332031 18.324219 -12.234375 C 18.324219 -9.453125 15.855469 -7.5625 13.074219 -7.5625 C 13.074219 -7.5625 13.074219 -7.5625 13.023438 -7.5625 L 13.023438 0 C 13.074219 0 13.074219 0 13.074219 0 C 19.796875 0 26.097656 -4.359375 26.097656 -12.234375 C 26.097656 -17.171875 23.679688 -21.265625 19.269531 -23.3125 Z M 19.269531 -23.3125 "/></g></g></g><path stroke-linecap="butt" transform="matrix(-0.75, 0, 0, -0.75, 322.229779, 117.160716)" fill="none" stroke-linejoin="miter" d="M -0.000919213 5.000746 L 84.431378 5.000746 " stroke="#01034d" stroke-width="10" stroke-opacity="1" stroke-miterlimit="4"/><path stroke-linecap="butt" transform="matrix(0, -0.75, 0.75, 0, 314.733646, 173.754423)" fill="none" stroke-linejoin="miter" d="M 0.000688987 5.000972 L 82.464236 5.000972 " stroke="#01034d" stroke-width="10" stroke-opacity="1" stroke-miterlimit="4"/><path stroke-linecap="butt" transform="matrix(0.75, 0, 0, 0.75, 52.761769, 257.831585)" fill="none" stroke-linejoin="miter" d="M -0.0000670471 5.000596 L 84.43223 5.000596 " stroke="#01034d" stroke-width="10" stroke-opacity="1" stroke-miterlimit="4"/><path stroke-linecap="butt" transform="matrix(0, 0.75, -0.75, 0, 60.257924, 201.237877)" fill="none" stroke-linejoin="miter" d="M 0.000538753 5.000149 L 82.464086 5.000149 " stroke="#01034d" stroke-width="10" stroke-opacity="1" stroke-miterlimit="4"/></svg>